<svg width="19" height="19" viewBox="0 0 19 19" fill="none" xmlns="http://www.w3.org/2000/svg">
<g clip-path="url(#clip0_620_180)">
<path d="M18.4307 11.5899L16.6843 10.2243C16.7065 10.0137 16.7255 9.7675 16.7255 9.50703C16.7255 9.24656 16.7072 9.00038 16.6843 8.78978L18.4323 7.42338C18.7569 7.16688 18.8456 6.71166 18.6389 6.33247L16.8228 3.19031C16.6289 2.83566 16.2037 2.65356 15.7723 2.81269L13.7116 3.63997C13.3166 3.35497 12.9025 3.11431 12.4742 2.92194L12.1607 0.736158C12.1092 0.321313 11.7482 0.0078125 11.3216 0.0078125H7.67991C7.25319 0.0078125 6.893 0.321312 6.84231 0.729813L6.52803 2.92353C6.11319 3.11038 5.7055 3.34788 5.29303 3.64156L3.22678 2.81191C2.83962 2.66228 2.37649 2.83009 2.18412 3.18319L0.365685 6.32928C0.151156 6.69188 0.23981 7.16291 0.571531 7.42575L2.31794 8.79138C2.29021 9.05816 2.27678 9.29013 2.27678 9.50785C2.27678 9.72557 2.29025 9.9575 2.31794 10.2251L0.569935 11.5915C0.24534 11.8488 0.157465 12.304 0.36409 12.6824L2.18019 15.8245C2.37416 16.1784 2.79531 16.3621 3.23071 16.2022L5.29144 15.3749C5.68569 15.6591 6.09971 15.8998 6.52803 16.0929L6.84153 18.2779C6.89296 18.6943 7.25319 19.0078 7.68069 19.0078H11.3223C11.7491 19.0078 12.1101 18.6943 12.1607 18.2858L12.475 16.0929C12.8898 15.9053 13.2967 15.6686 13.71 15.3741L15.7762 16.2037C15.8751 16.2424 15.9804 16.2623 16.0866 16.2623C16.3937 16.2623 16.6764 16.0945 16.8189 15.8332L18.6429 12.6745C18.8456 12.304 18.7569 11.8488 18.4307 11.5899ZM9.50072 12.6745C7.75431 12.6745 6.33406 11.2542 6.33406 9.50781C6.33406 7.76141 7.75431 6.34116 9.50072 6.34116C11.2471 6.34116 12.6674 7.76141 12.6674 9.50781C12.6674 11.2542 11.2471 12.6745 9.50072 12.6745Z" fill="#B6C2D6"/>
</g>
<defs>
<clipPath id="clip0_620_180">
<rect width="19" height="19" fill="white" transform="translate(0 0.0078125)"/>
</clipPath>
</defs>
</svg>
